<svg xmlns="http://www.w3.org/2000/svg" viewBox="0 0 500 500">
  <defs>
    <linearGradient id="blueGradient" x1="0%" y1="0%" x2="100%" y2="100%">
      <stop offset="0%" style="stop-color:#60A5FA;stop-opacity:1" />
      <stop offset="100%" style="stop-color:#2563EB;stop-opacity:1" />
    </linearGradient>
  </defs>

  <!-- Large star -->
  <path fill="none" stroke="url(#blueGradient)" stroke-width="35" d="M 205 130 C 205 120, 195 120, 190 130 L 150 210 C 145 220, 135 230, 125 235 L 45 275 C 35 280, 35 290, 45 295 L 125 335 C 135 340, 145 350, 150 360 L 190 440 C 195 450, 205 450, 210 440 L 250 360 C 255 350, 265 340, 275 335 L 355 295 C 365 290, 365 280, 355 275 L 275 235 C 265 230, 255 220, 250 210 L 210 130 C 208 125, 202 125, 200 130 Z" />

  <!-- Small star -->
  <path fill="none" stroke="url(#blueGradient)" stroke-width="35" d="M 365 50 C 365 45, 360 45, 357 50 L 340 90 C 337 97, 330 104, 323 107 L 283 124 C 278 126, 278 131, 283 133 L 323 150 C 330 153, 337 160, 340 167 L 357 207 C 360 212, 365 212, 368 207 L 385 167 C 388 160, 395 153, 402 150 L 442 133 C 447 131, 447 126, 442 124 L 402 107 C 395 104, 388 97, 385 90 L 368 50 C 366 47, 362 47, 365 50 Z" />
</svg>